<svg id="visual" viewBox="0 0 1900 1000" width="1900" height="1000" xmlns="http://www.w3.org/2000/svg" xmlns:xlink="http://www.w3.org/1999/xlink" version="1.1"><path d="M0 596L45.2 610.8C90.3 625.7 180.7 655.3 271.2 691.2C361.7 727 452.3 769 542.8 786.8C633.3 804.7 723.7 798.3 814.2 765.8C904.7 733.3 995.3 674.7 1085.8 657C1176.3 639.3 1266.7 662.7 1357.2 686.3C1447.7 710 1538.3 734 1628.8 722.2C1719.3 710.3 1809.7 662.7 1854.8 638.8L1900 615L1900 1001L1854.8 1001C1809.7 1001 1719.3 1001 1628.8 1001C1538.3 1001 1447.7 1001 1357.2 1001C1266.7 1001 1176.3 1001 1085.8 1001C995.3 1001 904.7 1001 814.2 1001C723.7 1001 633.3 1001 542.8 1001C452.3 1001 361.7 1001 271.2 1001C180.7 1001 90.3 1001 45.2 1001L0 1001Z" fill="#f2911b" stroke-linecap="round" stroke-linejoin="miter"></path></svg>